<svg width="80" height="80" viewBox="0 0 80 80" fill="none" xmlns="http://www.w3.org/2000/svg">
<circle cx="40" cy="40" r="40" fill="url(#paint0_linear_2315_469)"/>
<path d="M61.1729 23.3333L47.5 36.8438V23.3333H43.9036L30.8333 36.5903V15H15V65H65V23.3333H61.1729ZM61.6667 61.6667H18.3333V18.3333H27.5V40.8333H31.331L44.1667 27.8144V40.8333H48.2046L61.6667 27.5312V61.6667Z" fill="white"/>
<path d="M27.5 47.5V48.3333H30.8333V45H27.5V47.5ZM27.5 52.5H30.8333V55.8333H27.5V52.5ZM35.8333 47.5V48.3333H39.1667V45H35.8333V47.5ZM35.8333 52.5H39.1667V55.8333H35.8333V52.5ZM44.1667 47.5V48.3333H47.5V45H44.1667V47.5ZM44.1667 52.5H47.5V55.8333H44.1667V52.5ZM52.5 45H55.8333V48.3333H52.5V45ZM52.5 52.5H55.8333V55.8333H52.5V52.5Z" fill="white"/>
<defs>
<linearGradient id="paint0_linear_2315_469" x1="40" y1="0" x2="40" y2="80" gradientUnits="userSpaceOnUse">
<stop stop-color="#B88746"/>
<stop offset="1" stop-color="#DFBD69"/>
</linearGradient>
</defs>
</svg>
