<svg width="80" height="80" viewBox="0 0 80 80" fill="none" xmlns="http://www.w3.org/2000/svg">
<circle cx="40" cy="40" r="40" fill="url(#paint0_linear_2315_456)"/>
<path d="M62.5 30C61.995 30 50.375 30.0725 40 35.02C29.625 30.0725 18.005 30 17.5 30C16.837 30 16.2011 30.2634 15.7322 30.7322C15.2634 31.2011 15 31.837 15 32.5V57.2075C15 57.5429 15.0675 57.875 15.1985 58.1838C15.3295 58.4926 15.5213 58.7719 15.7625 59.005C16.25 59.475 16.9625 59.7675 17.585 59.705L17.9025 59.7025C19.61 59.7025 28.6425 59.9475 38.9425 64.765C38.9825 64.785 39.0275 64.7775 39.0675 64.7925C39.365 64.915 39.6775 65 40 65C40.3225 65 40.635 64.915 40.935 64.7925C40.975 64.7775 41.02 64.785 41.06 64.765C51.36 59.945 60.3925 59.7025 62.1 59.7025L62.4175 59.705C63.0125 59.7675 63.75 59.475 64.24 59.005C64.725 58.5325 65 57.8825 65 57.2075V32.5C65 31.837 64.7366 31.2011 64.2678 30.7322C63.7989 30.2634 63.163 30 62.5 30ZM20 35.1225C23.7125 35.4 30.9525 36.3225 37.5 39.3525V58.7075C30 55.77 23.525 54.9725 20 54.7675V35.1225ZM60 54.7675C56.475 54.9725 50 55.77 42.5 58.7075V39.3525C49.0475 36.3225 56.2875 35.4 60 35.1225V54.7675Z" fill="white"/>
<path d="M40 30C44.1421 30 47.5 26.6421 47.5 22.5C47.5 18.3579 44.1421 15 40 15C35.8579 15 32.5 18.3579 32.5 22.5C32.5 26.6421 35.8579 30 40 30Z" fill="white"/>
<defs>
<linearGradient id="paint0_linear_2315_456" x1="40" y1="0" x2="40" y2="80" gradientUnits="userSpaceOnUse">
<stop stop-color="#B88746"/>
<stop offset="1" stop-color="#DFBD69"/>
</linearGradient>
</defs>
</svg>
