<svg width="50" height="50" viewBox="0 0 50 50" fill="none" xmlns="http://www.w3.org/2000/svg">
<rect x="1" y="1" width="48" height="48" rx="9" stroke="#DFBD69" stroke-width="2"/>
<path d="M20.0414 17.5L17.0621 10L23.0207 13L26 10L28.9793 13L34.9379 10L31.9586 17.5H20.0414ZM31.9586 40H20.0414C11.1034 40 12.5931 34 12.5931 34C12.5931 34 14.0828 23.5 20.0414 20.5H31.9586C37.9172 23.5 39.4069 34 39.4069 34C39.4069 34 40.8966 40 31.9586 40ZM19.2966 25.75C19.2966 26.3467 19.532 26.919 19.951 27.341C20.3701 27.7629 20.9384 28 21.531 28C22.1237 28 22.692 27.7629 23.1111 27.341C23.5301 26.919 23.7655 26.3467 23.7655 25.75C23.7655 25.1533 23.5301 24.581 23.1111 24.159C22.692 23.7371 22.1237 23.5 21.531 23.5C20.9384 23.5 20.3701 23.7371 19.951 24.159C19.532 24.581 19.2966 25.1533 19.2966 25.75ZM32.7034 34.75C32.7034 34.1533 32.468 33.581 32.049 33.159C31.6299 32.7371 31.0616 32.5 30.469 32.5C29.8763 32.5 29.308 32.7371 28.8889 33.159C28.4699 33.581 28.2345 34.1533 28.2345 34.75C28.2345 35.3467 28.4699 35.919 28.8889 36.341C29.308 36.7629 29.8763 37 30.469 37C31.0616 37 31.6299 36.7629 32.049 36.341C32.468 35.919 32.7034 35.3467 32.7034 34.75ZM32.7034 25.525L30.6924 23.5L19.2966 34.975L21.3374 37L32.7034 25.525Z" fill="#B88746"/>
</svg>
