<svg width="50" height="50" viewBox="0 0 50 50" fill="none" xmlns="http://www.w3.org/2000/svg">
<rect x="1" y="1" width="48" height="48" rx="9" stroke="#DFBD69" stroke-width="2"/>
<path d="M31.6251 10H38.4561L38.6061 10.021L38.7546 10.063L38.8446 10.102C38.9646 10.153 39.0741 10.2295 39.1731 10.327L39.2331 10.393L39.2991 10.4785L39.3801 10.6135L39.4386 10.7485L39.4671 10.8445L39.4881 10.9405L39.5016 11.083V17.881C39.5015 18.166 39.3932 18.4404 39.1986 18.6487C39.004 18.857 38.7376 18.9836 38.4533 19.003C38.1689 19.0225 37.8878 18.9332 37.6666 18.7534C37.4455 18.5735 37.3009 18.3164 37.2621 18.034L37.2516 17.881V13.8385L27.5916 23.4985C27.4011 23.689 27.1486 23.8049 26.8799 23.825C26.6112 23.8451 26.3443 23.7681 26.1276 23.608L26.0016 23.5L21.4566 19.135L12.9216 27.6685C12.7209 27.8698 12.4514 27.9876 12.1673 27.9983C11.8832 28.009 11.6056 27.9117 11.3903 27.7261C11.175 27.5404 11.038 27.2802 11.0068 26.9976C10.9756 26.7151 11.0525 26.4312 11.2221 26.203L11.3316 26.077L20.6616 16.747C20.8523 16.5567 21.1049 16.4411 21.3735 16.4213C21.6422 16.4015 21.9091 16.4787 22.1256 16.639L22.2516 16.747L26.7966 21.112L35.6586 12.25H31.6236C31.352 12.2496 31.0897 12.151 30.8851 11.9724C30.6806 11.7937 30.5475 11.5471 30.5106 11.278L30.5001 11.125C30.5001 10.8531 30.5986 10.5905 30.7772 10.3856C30.9559 10.1807 31.2028 10.0475 31.4721 10.0105L31.6266 10H31.6251ZM12.1266 32.5C12.425 32.5 12.7111 32.6185 12.9221 32.8295C13.1331 33.0405 13.2516 33.3266 13.2516 33.625V38.875C13.2516 39.1734 13.1331 39.4595 12.9221 39.6705C12.7111 39.8815 12.425 40 12.1266 40C11.8282 40 11.5421 39.8815 11.3311 39.6705C11.1201 39.4595 11.0016 39.1734 11.0016 38.875V33.625C11.0016 33.3266 11.1201 33.0405 11.3311 32.8295C11.5421 32.6185 11.8282 32.5 12.1266 32.5ZM20.7516 27.625C20.7516 27.3266 20.6331 27.0405 20.4221 26.8295C20.2111 26.6185 19.925 26.5 19.6266 26.5C19.3282 26.5 19.0421 26.6185 18.8311 26.8295C18.6201 27.0405 18.5016 27.3266 18.5016 27.625V38.875C18.5016 39.1734 18.6201 39.4595 18.8311 39.6705C19.0421 39.8815 19.3282 40 19.6266 40C19.925 40 20.2111 39.8815 20.4221 39.6705C20.6331 39.4595 20.7516 39.1734 20.7516 38.875V27.625ZM27.1266 29.5C27.425 29.5 27.7111 29.6185 27.9221 29.8295C28.1331 30.0405 28.2516 30.3266 28.2516 30.625V38.875C28.2516 39.1734 28.1331 39.4595 27.9221 39.6705C27.7111 39.8815 27.425 40 27.1266 40C26.8282 40 26.5421 39.8815 26.3311 39.6705C26.1201 39.4595 26.0016 39.1734 26.0016 38.875V30.625C26.0016 30.3266 26.1201 30.0405 26.3311 29.8295C26.5421 29.6185 26.8282 29.5 27.1266 29.5ZM35.7516 23.125C35.7516 22.8266 35.6331 22.5405 35.4221 22.3295C35.2111 22.1185 34.925 22 34.6266 22C34.3282 22 34.0421 22.1185 33.8311 22.3295C33.6201 22.5405 33.5016 22.8266 33.5016 23.125V38.875C33.5016 39.1734 33.6201 39.4595 33.8311 39.6705C34.0421 39.8815 34.3282 40 34.6266 40C34.925 40 35.2111 39.8815 35.4221 39.6705C35.6331 39.4595 35.7516 39.1734 35.7516 38.875V23.125Z" fill="#B88746"/>
</svg>
