<svg width="50" height="50" viewBox="0 0 50 50" fill="none" xmlns="http://www.w3.org/2000/svg">
<rect x="1" y="1" width="48" height="48" rx="9" stroke="#DFBD69" stroke-width="2"/>
<path d="M30.8534 10.0012C25.8019 10.0012 21.7069 12.2594 21.7069 15.0492C21.7069 17.8389 25.8031 20.0983 30.8534 20.0983C35.9049 20.0983 40 17.8389 40 15.0492C40 12.2594 35.9038 10 30.8534 10V10.0012ZM40 16.5488C39.9977 19.3386 35.9049 21.598 30.8534 21.598C25.816 21.598 21.7303 19.3631 21.7069 16.5863V18.5612C21.7069 19.753 22.4701 20.8441 23.7204 21.708C24.9848 22.0522 26.111 22.5299 27.0487 23.1339C28.2112 23.4289 29.4896 23.6092 30.8534 23.6092C35.9049 23.6092 40 21.351 40 18.5612V16.5488ZM40 20.0609C40 22.8506 35.9049 25.11 30.8534 25.11C30.2388 25.11 29.6418 25.0644 29.0611 25C29.5193 25.6171 29.8319 26.3299 29.9754 27.085C30.2669 27.1014 30.5549 27.1213 30.8534 27.1213C35.9049 27.1213 40 24.863 40 22.0733V20.0609ZM19.1466 22.8775C14.0951 22.8775 10 25.137 10 27.9267C10 30.7165 14.0962 32.9759 19.1466 32.9759C24.1981 32.9759 28.2931 30.7165 28.2931 27.9267C28.2931 25.137 24.1969 22.8775 19.1466 22.8775ZM40 23.5729C39.9977 26.3627 35.9049 28.6221 30.8534 28.6221C30.5596 28.6221 30.2622 28.601 29.9754 28.5846C29.9625 28.6724 29.9555 28.7895 29.9391 28.8773C29.9977 29.0541 30.048 29.2285 30.048 29.4275V30.5982C30.3137 30.6111 30.5807 30.6333 30.8534 30.6333C35.9049 30.6333 40 28.3751 40 25.5853V23.5729ZM40 27.085C39.9977 29.8747 35.9049 32.1342 30.8534 32.1342C30.5596 32.1342 30.2622 32.1131 29.9754 32.0967C29.9625 32.1845 29.9555 32.3016 29.9391 32.3894C29.9977 32.565 30.048 32.7406 30.048 32.9396V34.1103C30.3137 34.1232 30.5807 34.1454 30.8534 34.1454C35.9049 34.1454 40 31.8871 40 29.0974V27.085ZM28.2931 29.4264C28.2908 32.2161 24.1981 34.4755 19.1466 34.4755C14.1091 34.4755 10.0234 32.2407 10 29.4627V31.4388C10 34.2285 14.0939 36.4879 19.1466 36.4879C24.1993 36.4879 28.2931 34.2285 28.2931 31.4388V29.4264ZM28.2931 32.9384C28.2908 35.7282 24.1981 37.9876 19.1466 37.9876C14.1091 37.9876 10.0234 35.7528 10 32.9747V34.9508C10 37.7406 14.0939 40 19.1466 40C24.1993 40 28.2931 37.7406 28.2931 34.9508V32.9384Z" fill="#B88746"/>
</svg>
