<svg width="50" height="50" viewBox="0 0 50 50" fill="none" xmlns="http://www.w3.org/2000/svg">
<rect x="1" y="1" width="48" height="48" rx="9" stroke="#B78C23" stroke-width="2"/>
<path d="M37.528 18.6842L33.896 15.1C34.008 14.4368 34.184 13.8211 34.408 13.2842C34.5616 12.9247 34.6227 12.5332 34.5858 12.1447C34.549 11.7562 34.4153 11.3828 34.1967 11.0576C33.9781 10.7325 33.6814 10.4658 33.333 10.2812C32.9846 10.0967 32.5954 10.0001 32.2 10C29.576 10 27.256 11.2474 25.8 13.1579H17.8C12.936 13.1579 9 17.0421 9 21.8421C9 26.6421 13 40 13 40H21.8V36.8421H25V40H33.8L36.488 31.1737L41 29.6895V18.6842H37.528ZM26.6 21.0526H18.6V17.8947H26.6V21.0526ZM31.4 24.2105C30.52 24.2105 29.8 23.5 29.8 22.6316C29.8 21.7632 30.52 21.0526 31.4 21.0526C32.28 21.0526 33 21.7632 33 22.6316C33 23.5 32.28 24.2105 31.4 24.2105Z" fill="#B78C23"/>
</svg>
