<svg width="80" height="80" viewBox="0 0 80 80" fill="none" xmlns="http://www.w3.org/2000/svg">
<rect x="1" y="1" width="78" height="78" rx="19" stroke="#DFBD69" stroke-width="2"/>
<path d="M58.0566 26.1113H45.5566V60.8335H60.8344V28.8891C60.8344 28.1524 60.5418 27.4459 60.0208 26.9249C59.4999 26.404 58.7934 26.1113 58.0566 26.1113ZM51.1122 49.7224H48.3344V46.9447H51.1122V49.7224ZM51.1122 42.778H48.3344V40.0002H51.1122V42.778ZM51.1122 35.8335H48.3344V33.0558H51.1122V35.8335ZM56.6678 49.7224H53.89V46.9447H56.6678V49.7224ZM56.6678 42.778H53.89V40.0002H56.6678V42.778ZM56.6678 35.8335H53.89V33.0558H56.6678V35.8335Z" fill="#DFBD69"/>
<path d="M39.8325 19.167H23.4991C22.7182 19.167 21.9693 19.4772 21.4171 20.0294C20.8649 20.5816 20.5547 21.3305 20.5547 22.1114V60.8337H27.4991V56.667H35.8325V60.8337H42.7769V22.1114C42.7769 21.3305 42.4667 20.5816 41.9145 20.0294C41.3623 19.4772 40.6134 19.167 39.8325 19.167ZM27.4991 49.7226H24.7214V46.9448H27.4991V49.7226ZM27.4991 42.7781H24.7214V40.0003H27.4991V42.7781ZM27.4991 35.8337H24.7214V33.0559H27.4991V35.8337ZM27.4991 28.8892H24.7214V26.1114H27.4991V28.8892ZM33.0547 49.7226H30.2769V46.9448H33.0547V49.7226ZM33.0547 42.7781H30.2769V40.0003H33.0547V42.7781ZM33.0547 35.8337H30.2769V33.0559H33.0547V35.8337ZM33.0547 28.8892H30.2769V26.1114H33.0547V28.8892ZM38.6102 49.7226H35.8325V46.9448H38.6102V49.7226ZM38.6102 42.7781H35.8325V40.0003H38.6102V42.7781ZM38.6102 35.8337H35.8325V33.0559H38.6102V35.8337ZM38.6102 28.8892H35.8325V26.1114H38.6102V28.8892Z" fill="#DFBD69"/>
</svg>
