<svg width="80" height="80" viewBox="0 0 80 80" fill="none" xmlns="http://www.w3.org/2000/svg">
<rect x="1" y="1" width="78" height="78" rx="19" stroke="#DFBD69" stroke-width="2"/>
<path d="M45 15H65V20H45V15ZM35 15H40V20H35V15ZM45 25H65V30H45V25ZM35 25H40V30H35V25ZM45 35H65V40H45V35ZM35 35H40V40H35V35Z" fill="#DFBD69"/>
<path d="M22.5 60C23.8807 60 25 58.8807 25 57.5C25 56.1193 23.8807 55 22.5 55C21.1193 55 20 56.1193 20 57.5C20 58.8807 21.1193 60 22.5 60Z" fill="#DFBD69"/>
<path d="M20 20H25V42.5H20V20Z" fill="#DFBD69"/>
<path d="M27.5 15H17.5C16.837 15 16.2011 15.2634 15.7322 15.7322C15.2634 16.2011 15 16.837 15 17.5V62.5C15 63.163 15.2634 63.7989 15.7322 64.2678C16.2011 64.7366 16.837 65 17.5 65H27.5C28.163 65 28.7989 64.7366 29.2678 64.2678C29.7366 63.7989 30 63.163 30 62.5V17.5C30 16.837 29.7366 16.2011 29.2678 15.7322C28.7989 15.2634 28.163 15 27.5 15ZM27.5 62.5H17.5V17.5H27.5V62.5Z" fill="#DFBD69"/>
</svg>
