<svg width="80" height="80" viewBox="0 0 80 80" fill="none" xmlns="http://www.w3.org/2000/svg">
<rect x="1" y="1" width="78" height="78" rx="19" stroke="#DFBD69" stroke-width="2"/>
<path d="M28.75 16C30.0761 16 31.3479 16.5268 32.2855 17.4645C33.2232 18.4021 33.75 19.6739 33.75 21C33.75 22.3261 33.2232 23.5979 32.2855 24.5355C31.3479 25.4732 30.0761 26 28.75 26C27.4239 26 26.1521 25.4732 25.2145 24.5355C24.2768 23.5979 23.75 22.3261 23.75 21C23.75 19.6739 24.2768 18.4021 25.2145 17.4645C26.1521 16.5268 27.4239 16 28.75 16M25 28.5H32.5C33.8261 28.5 35.0979 29.0268 36.0355 29.9645C36.9732 30.9021 37.5 32.1739 37.5 33.5V47.25H33.75V66H23.75V47.25H20V33.5C20 32.1739 20.5268 30.9021 21.4645 29.9645C22.4021 29.0268 23.6739 28.5 25 28.5M51.25 16C52.5761 16 53.8479 16.5268 54.7855 17.4645C55.7232 18.4021 56.25 19.6739 56.25 21C56.25 22.3261 55.7232 23.5979 54.7855 24.5355C53.8479 25.4732 52.5761 26 51.25 26C49.9239 26 48.6521 25.4732 47.7145 24.5355C46.7768 23.5979 46.25 22.3261 46.25 21C46.25 19.6739 46.7768 18.4021 47.7145 17.4645C48.6521 16.5268 49.9239 16 51.25 16ZM47.5 28.5H55C56.3261 28.5 57.5979 29.0268 58.5355 29.9645C59.4732 30.9021 60 32.1739 60 33.5V47.25H56.25V66H46.25V47.25H42.5V33.5C42.5 32.1739 43.0268 30.9021 43.9645 29.9645C44.9021 29.0268 46.1739 28.5 47.5 28.5Z" fill="#DFBD69"/>
</svg>
