<svg width="50" height="50" viewBox="0 0 50 50" fill="none" xmlns="http://www.w3.org/2000/svg">
<rect x="1" y="1" width="48" height="48" rx="9" stroke="#B88746" stroke-width="2"/>
<path d="M18.482 21.5389C20.0538 21.5389 21.5611 20.9311 22.6725 19.8491C23.7839 18.7671 24.4083 17.2996 24.4083 15.7695C24.4083 14.2393 23.7839 12.7718 22.6725 11.6898C21.5611 10.6079 20.0538 10 18.482 10C16.9103 10 15.4029 10.6079 14.2915 11.6898C13.1801 12.7718 12.5558 14.2393 12.5558 15.7695C12.5558 17.2996 13.1801 18.7671 14.2915 19.8491C15.4029 20.9311 16.9103 21.5389 18.482 21.5389ZM34.8812 21.0243C33.791 21.5705 32.5259 21.6842 31.3514 21.3417C30.1769 20.9992 29.1844 20.2271 28.5822 19.1874C27.98 18.1477 27.8149 16.9213 28.1216 15.7656C28.4283 14.61 29.1829 13.6149 30.2271 12.9894C31.2713 12.3638 32.5238 12.1564 33.7217 12.4106C34.9196 12.6648 35.9698 13.361 36.6517 14.3529C37.3337 15.3448 37.5945 16.5554 37.3792 17.7304C37.164 18.9055 36.4896 19.9537 35.4975 20.6551C35.2794 20.7612 35.0756 20.8858 34.8812 21.0243ZM24.4083 23.8467C25.3513 23.8467 26.2558 24.2114 26.9226 24.8606C27.5894 25.5098 27.964 26.3903 27.964 27.3084V27.5253C27.9427 28.1023 27.5184 34.2318 18.482 34.2318C9 34.2318 9 27.4815 9 27.4815V27.3084C9 26.3903 9.37462 25.5098 10.0415 24.8606C10.7083 24.2114 11.6127 23.8467 12.5558 23.8467H24.4083ZM31.9892 33.641L34.0302 34.3033C34.8456 33.7033 35.5236 32.9463 36.0688 32.0371C36.5358 31.257 36.8416 30.4655 36.9838 29.6624L37.0431 29.2608L35.3434 27.6915C35.0685 27.4314 34.8729 27.1022 34.7784 26.7405C34.6838 26.3788 34.694 25.9986 34.8077 25.6422L34.8812 25.446L35.654 23.676C35.813 23.2838 36.1078 22.958 36.4874 22.7549C36.867 22.5518 37.3075 22.4841 37.7329 22.5636L37.9131 22.6098L38.8802 22.9098C39.8379 23.2098 40.5704 24.0083 40.8074 25.0099C41.3716 27.3961 40.696 30.2993 38.7807 33.7194C36.87 37.135 34.7745 39.1912 32.4988 39.8812C32.0642 40.013 31.6024 40.0355 31.1564 39.9468C30.7104 39.858 30.2948 39.6608 29.9482 39.3735L29.7585 39.2028L29.0237 38.4873C28.7151 38.1776 28.5159 37.7802 28.455 37.3528C28.394 36.9254 28.4745 36.4902 28.6847 36.1103L28.7914 35.9395L29.8984 34.3564C30.0782 34.0954 30.3246 33.8844 30.6134 33.744C30.9022 33.6036 31.2235 33.5387 31.5459 33.5556C31.6288 33.5602 31.7118 33.5718 31.7948 33.5879L31.9892 33.641Z" fill="#DFBD69"/>
</svg>
