<svg width="50" height="50" viewBox="0 0 50 50" fill="none" xmlns="http://www.w3.org/2000/svg">
<rect x="1" y="1" width="48" height="48" rx="9" stroke="#B88746" stroke-width="2"/>
<path d="M40 14.6875C40 15.7422 39.1621 16.7148 37.75 17.5C36.0449 18.4434 33.502 19.1113 30.584 19.3105C30.3672 19.2051 30.1504 19.1055 29.9219 19.0176C27.6133 18.0508 24.543 17.5 21.25 17.5C20.7637 17.5 20.2891 17.5117 19.8145 17.5352L19.75 17.5C18.3379 16.7148 17.5 15.7422 17.5 14.6875C17.5 12.0977 22.5391 10 28.75 10C34.9609 10 40 12.0977 40 14.6875ZM19.416 19.4395C20.0137 19.3984 20.6289 19.375 21.25 19.375C24.8945 19.375 28.1289 20.0957 30.1855 21.2148C31.6387 22.0059 32.5 22.9902 32.5 24.0625C32.5 24.2969 32.459 24.5254 32.377 24.748C32.1074 25.5215 31.3809 26.2305 30.3262 26.8281C30.3203 26.834 30.3086 26.834 30.3027 26.8398C30.2852 26.8516 30.2676 26.8574 30.25 26.8691C28.1992 28.0059 24.9297 28.7441 21.25 28.7441C17.7578 28.7441 14.6348 28.082 12.5664 27.0391C12.4551 26.9863 12.3496 26.9277 12.2441 26.8691C10.8379 26.0898 10 25.1172 10 24.0625C10 22.0234 13.1289 20.2832 17.5 19.6445C18.1152 19.5566 18.7539 19.4863 19.416 19.4395ZM34.375 24.0625C34.375 22.7793 33.7539 21.7246 32.9629 20.9336C34.6211 20.6758 36.1387 20.2656 37.4277 19.7324C38.3828 19.334 39.2734 18.8418 40 18.2383V20.3125C40 21.4434 39.0332 22.4863 37.4336 23.2949C36.5781 23.7285 35.5352 24.0977 34.3633 24.3789C34.3691 24.2734 34.375 24.1738 34.375 24.0684V24.0625ZM32.5 29.6875C32.5 30.7422 31.6621 31.7148 30.25 32.5C30.1445 32.5586 30.0391 32.6113 29.9277 32.6699C27.8652 33.7129 24.7422 34.375 21.25 34.375C17.5703 34.375 14.3008 33.6367 12.25 32.5C10.8379 31.7148 10 30.7422 10 29.6875V27.6133C10.7324 28.2168 11.6172 28.709 12.5723 29.1074C14.8867 30.0742 17.957 30.625 21.25 30.625C24.543 30.625 27.6133 30.0742 29.9277 29.1074C30.3848 28.9199 30.8242 28.7031 31.2402 28.4688C31.5977 28.2695 31.9316 28.0469 32.248 27.8125C32.3359 27.748 32.418 27.6777 32.5 27.6133V29.6875ZM34.375 29.6875V26.2949C35.4883 26.0488 36.5137 25.7383 37.4277 25.3574C38.3828 24.959 39.2734 24.4668 40 23.8633V25.9375C40 26.5527 39.707 27.168 39.127 27.748C38.1719 28.7031 36.4902 29.4883 34.3633 29.998C34.3691 29.8984 34.375 29.793 34.375 29.6875ZM21.25 36.25C24.543 36.25 27.6133 35.6992 29.9277 34.7324C30.8828 34.334 31.7734 33.8418 32.5 33.2383V35.3125C32.5 37.9023 27.4609 40 21.25 40C15.0391 40 10 37.9023 10 35.3125V33.2383C10.7324 33.8418 11.6172 34.334 12.5723 34.7324C14.8867 35.6992 17.957 36.25 21.25 36.25Z" fill="#DFBD69"/>
</svg>
