<svg width="52" height="40" viewBox="0 0 52 40" fill="none" xmlns="http://www.w3.org/2000/svg">
<path d="M0 0V4H44V36H16V40H52V36H48V0H0ZM8.004 6C5.88417 6.00737 3.85321 6.85247 2.35387 8.35105C0.854543 9.84963 0.00843277 11.8802 0 14C0 18.398 3.608 22 8.004 22C10.1228 21.9916 12.1523 21.1459 13.6501 19.6473C15.148 18.1487 15.9926 16.1188 16 14C16 9.606 12.396 6 8.004 6ZM20 8V12H30V8H20ZM34 8V12H40V8H34ZM8.004 10C10.232 10 12 11.766 12 14C12 16.24 10.234 18 8.004 18C5.764 18 4 16.24 4 14C4 11.766 5.766 10 8.004 10ZM20 16V20H40V16H20ZM0 24V40H4V28H10V40H14V29.316L18.128 31.5C19.298 32.12 20.704 32.118 21.872 31.5V31.504L28.932 27.77L27.066 24.23L20.004 27.964L13.812 24.696C12.9478 24.2395 11.9854 24.0006 11.008 24H0Z" fill="url(#paint0_linear_2910_60)"/>
<defs>
<linearGradient id="paint0_linear_2910_60" x1="26" y1="0" x2="26" y2="40" gradientUnits="userSpaceOnUse">
<stop stop-color="#B88746"/>
<stop offset="1" stop-color="#DFBD69"/>
</linearGradient>
</defs>
</svg>
