<svg width="80" height="80" viewBox="0 0 80 80" fill="none" xmlns="http://www.w3.org/2000/svg">
<rect x="1" y="1" width="78" height="78" rx="19" stroke="#B88746" stroke-width="2"/>
<path d="M40 15C26.1929 15 15 26.1929 15 40C15 53.8071 26.1929 65 40 65C53.8071 65 65 53.8071 65 40C65 26.1929 53.8071 15 40 15ZM39.1516 24.2407H40.8484V29.2425H39.1516V24.2407ZM32.2119 25.7422L35.0806 29.8376L33.689 30.8142L30.8203 26.7188L32.2119 25.7422ZM47.7881 25.7422L49.1797 26.7188L46.311 30.8142L44.9194 29.8376L47.7881 25.7422ZM40 30.6098C44.1564 30.6098 47.5256 33.1326 47.5256 36.2463L43.2501 49.195H36.7499L32.4744 36.2463C32.4744 33.1326 35.8438 30.6098 40 30.6098ZM26.4837 32.1112L31.1835 33.8232L30.6006 35.4193L25.9039 33.7073L26.4837 32.1112ZM53.5163 32.1112L54.0961 33.7073L49.3964 35.4193L48.8165 33.8232L53.5163 32.1112ZM30.9576 39.4141L31.3971 41.0559L26.5662 42.3499L26.1267 40.708L30.9576 39.4141ZM49.0424 39.4141L53.8733 40.708L53.4338 42.3499L48.6029 41.0559L49.0424 39.4141ZM36.6553 50.141H43.3447V52.3901H36.6553V50.141ZM36.6553 53.5101H43.3447V55.7593H36.6553V53.5101Z" fill="#DFBD69"/>
</svg>
