<svg width="50" height="50" viewBox="0 0 50 50" fill="none" xmlns="http://www.w3.org/2000/svg">
<rect x="1" y="1" width="48" height="48" rx="9" stroke="#B88746" stroke-width="2"/>
<path d="M29.2857 19.2857H30.7143V17.8571H29.2857V19.2857ZM26.4286 19.2857H27.8571V17.8571H26.4286V19.2857ZM28.5714 40L18.5714 37.2143V23.5714H21.3571L30.2143 26.8571C31 27.1429 31.6371 27.6429 32.1257 28.3571C32.6133 29.0714 32.8571 29.8571 32.8571 30.7143H30C29 30.7143 28.2143 30.6786 27.6429 30.6071C27.0714 30.5357 26.5714 30.4286 26.1429 30.2857L23.2857 29.3571L22.8571 30.7143L25.1071 31.5357C25.7738 31.7976 26.381 31.9643 26.9286 32.0357C27.4762 32.1071 28.119 32.1429 28.8571 32.1429H35.7143C37.2857 32.1429 38.3929 32.399 39.0357 32.9114C39.6786 33.4229 40 34.119 40 35V36.4286L28.5714 40ZM10 39.2857V23.5714H15.7143V39.2857H10ZM35.0357 27.8571C34.7024 27.0714 34.2262 26.381 33.6071 25.7857C32.9881 25.1905 32.2262 24.7262 31.3214 24.3929L21.4286 20.7143H18.5714V17.1429L28.5714 10L38.5714 17.1429V27.8571H35.0357ZM29.2857 22.1429H30.7143V20.7143H29.2857V22.1429ZM26.4286 22.1429H27.8571V20.7143H26.4286V22.1429Z" fill="#DFBD69"/>
</svg>
