<svg width="50" height="50" viewBox="0 0 50 50" fill="none" xmlns="http://www.w3.org/2000/svg">
<rect x="1" y="1" width="48" height="48" rx="9" stroke="#B88746" stroke-width="2"/>
<path d="M25 10C17 10 10 16.4333 10 25C10 28.5333 11.2333 31.7833 13.2833 34.35L10 37.65L12.35 40L15.6333 36.7167C18.2933 38.8409 21.5959 39.9986 25 40C28.8333 40 32.6833 38.5333 35.6 35.6C36.997 34.2112 38.1051 32.5595 38.8603 30.7401C39.6155 28.9208 40.0028 26.9699 40 25V10H25ZM31.3833 25.4333L22.7833 33.15C22.5167 33.4 22.1 33.3833 21.85 33.1333C21.7361 33.0213 21.6666 32.8718 21.6544 32.7125C21.6421 32.5532 21.6879 32.3948 21.7833 32.2667L25.85 26.7167L19.1 26.05C18.9351 26.0345 18.7782 25.9716 18.6483 25.8688C18.5184 25.7659 18.4212 25.6277 18.3683 25.4707C18.3153 25.3138 18.3091 25.1448 18.3502 24.9844C18.3913 24.8239 18.4781 24.6788 18.6 24.5667L27.2 16.85C27.4667 16.6 27.8833 16.6167 28.1333 16.8667C28.3667 17.1 28.4 17.4667 28.2 17.7333L24.1333 23.2833L30.8833 23.95C31.6333 24.0167 31.9333 24.9333 31.3833 25.4333Z" fill="#DFBD69"/>
</svg>
