<svg width="67" height="41" viewBox="0 0 67 41" fill="none" xmlns="http://www.w3.org/2000/svg">
<path d="M33.6907 2.45855L23.6064 10.626C21.9292 11.9803 21.6062 14.418 22.8772 16.1578C24.2211 18.0121 26.8359 18.3767 28.6382 16.9704L38.9829 8.92792C39.7122 8.36536 40.7539 8.49038 41.3269 9.21961C41.8999 9.94885 41.7644 10.9906 41.0352 11.5636L38.8579 13.2513L53.3385 26.5859V6.91731H53.2655L52.8592 6.65687L45.296 1.81265C43.7021 0.791719 41.8374 0.25 39.9413 0.25C37.6703 0.25 35.4617 1.03132 33.6907 2.45855ZM36.066 15.4181L30.68 19.606C27.3985 22.1688 22.6376 21.502 20.179 18.1267C17.8663 14.9493 18.4497 10.5114 21.5021 8.04242L30.1696 1.03133C28.9611 0.520859 27.6589 0.260418 26.3359 0.260418C24.3773 0.25 22.4709 0.833389 20.8353 1.91683L13.3346 6.91731V30.2529H16.2724L25.7941 38.9412C27.836 40.806 30.9926 40.6601 32.8573 38.6183C33.4303 37.9828 33.8158 37.2431 34.0137 36.4722L35.7847 38.0974C37.8161 39.9622 40.9831 39.8267 42.8479 37.7953C43.3167 37.2848 43.6604 36.691 43.8792 36.0764C45.9002 37.4307 48.6505 37.1494 50.3486 35.295C52.2133 33.2636 52.0779 30.0966 50.0465 28.2319L36.066 15.4181ZM10.001 6.91731H0V30.2529C0 32.0968 1.48973 33.5865 3.33365 33.5865H6.66731C8.51123 33.5865 10.001 32.0968 10.001 30.2529V6.91731ZM5.00048 30.2529C4.08373 30.2529 3.33365 29.5028 3.33365 28.5861C3.33365 27.6693 4.08373 26.9192 5.00048 26.9192C5.91724 26.9192 6.66731 27.6693 6.66731 28.5861C6.66731 29.5028 5.91724 30.2529 5.00048 30.2529ZM56.6721 6.91731V30.2529C56.6721 32.0968 58.1618 33.5865 60.0058 33.5865H63.3394C65.1833 33.5865 66.6731 32.0968 66.6731 30.2529V6.91731H56.6721ZM63.3394 28.5861C63.3394 29.5028 62.5893 30.2529 61.6726 30.2529C60.7558 30.2529 60.0058 29.5028 60.0058 28.5861C60.0058 27.6693 60.7558 26.9192 61.6726 26.9192C62.5893 26.9192 63.3394 27.6693 63.3394 28.5861Z" fill="url(#paint0_linear_2910_68)"/>
<defs>
<linearGradient id="paint0_linear_2910_68" x1="33.3365" y1="0.25" x2="33.3365" y2="40.25" gradientUnits="userSpaceOnUse">
<stop stop-color="#B88746"/>
<stop offset="1" stop-color="#DFBD69"/>
</linearGradient>
</defs>
</svg>
