<svg width="50" height="50" viewBox="0 0 50 50" fill="none" xmlns="http://www.w3.org/2000/svg">
<path d="M33.9286 47.4285C35.9011 47.4285 37.5 45.8295 37.5 43.8571C37.5 41.8846 35.9011 40.2856 33.9286 40.2856C31.9562 40.2856 30.3572 41.8846 30.3572 43.8571C30.3572 45.8295 31.9562 47.4285 33.9286 47.4285Z" fill="url(#paint0_linear_2910_83)"/>
<path d="M33.9286 11.7144C35.9011 11.7144 37.5 10.1154 37.5 8.14296C37.5 6.17052 35.9011 4.57153 33.9286 4.57153C31.9562 4.57153 30.3572 6.17052 30.3572 8.14296C30.3572 10.1154 31.9562 11.7144 33.9286 11.7144Z" fill="url(#paint1_linear_2910_83)"/>
<path d="M3.57143 29.5713C5.54387 29.5713 7.14286 27.9723 7.14286 25.9999C7.14286 24.0274 5.54387 22.4285 3.57143 22.4285C1.59898 22.4285 0 24.0274 0 25.9999C0 27.9723 1.59898 29.5713 3.57143 29.5713Z" fill="url(#paint2_linear_2910_83)"/>
<path d="M42.8571 17.8571C41.2779 17.8618 39.7448 18.3903 38.4981 19.3598C37.2514 20.3292 36.3615 21.6849 35.9679 23.2143H28.3179C28.0649 22.2072 27.5937 21.2681 26.9375 20.4634C26.2813 19.6588 25.4562 19.0082 24.5206 18.5579C23.585 18.1076 22.5618 17.8685 21.5236 17.8576C20.4853 17.8466 19.4574 18.0641 18.5125 18.4946L12.8393 11.4054C13.7725 10.1798 14.2803 8.68325 14.2857 7.14286C14.2857 5.73014 13.8668 4.34914 13.0819 3.1745C12.2971 1.99986 11.1815 1.08435 9.87631 0.543721C8.57113 0.00309486 7.13494 -0.138357 5.74936 0.137251C4.36378 0.41286 3.09104 1.09315 2.0921 2.0921C1.09315 3.09104 0.41286 4.36378 0.137251 5.74936C-0.138357 7.13494 0.00309486 8.57113 0.543721 9.87631C1.08435 11.1815 1.99986 12.2971 3.1745 13.0819C4.34914 13.8668 5.73014 14.2857 7.14286 14.2857C8.14977 14.2834 9.14458 14.066 10.0607 13.6482L15.7321 20.7375C14.7947 21.9607 14.2866 23.4589 14.2866 25C14.2866 26.5411 14.7947 28.0393 15.7321 29.2625L10.0607 36.3518C9.14458 35.934 8.14977 35.7166 7.14286 35.7143C5.73014 35.7143 4.34914 36.1332 3.1745 36.9181C1.99986 37.7029 1.08435 38.8185 0.543721 40.1237C0.00309486 41.4289 -0.138357 42.8651 0.137251 44.2506C0.41286 45.6362 1.09315 46.909 2.0921 47.9079C3.09104 48.9068 4.36378 49.5871 5.74936 49.8627C7.13494 50.1384 8.57113 49.9969 9.87631 49.4563C11.1815 48.9157 12.2971 48.0001 13.0819 46.8255C13.8668 45.6509 14.2857 44.2699 14.2857 42.8571C14.2805 41.3167 13.7726 39.8201 12.8393 38.5946L18.5107 31.5054C19.4557 31.9362 20.4838 32.154 21.5223 32.1432C22.5607 32.1324 23.5841 31.8934 24.5199 31.443C25.4558 30.9927 26.2811 30.342 26.9374 29.5372C27.5937 28.7323 28.065 27.793 28.3179 26.7857H35.9679C36.3041 28.076 36.9954 29.2461 37.9633 30.1633C38.9312 31.0804 40.1368 31.7078 41.4433 31.9741C42.7498 32.2405 44.1049 32.1352 45.3545 31.6701C46.6042 31.2051 47.6984 30.399 48.513 29.3433C49.3275 28.2877 49.8297 27.0248 49.9626 25.698C50.0955 24.3713 49.8537 23.0339 49.2646 21.8376C48.6756 20.6414 47.763 19.6343 46.6304 18.9307C45.4977 18.2271 44.1905 17.8552 42.8571 17.8571ZM3.57143 7.14286C3.57143 6.4365 3.78089 5.746 4.17333 5.15868C4.56576 4.57136 5.12354 4.1136 5.77613 3.84329C6.42873 3.57298 7.14682 3.50225 7.83961 3.64005C8.5324 3.77786 9.16877 4.118 9.66824 4.61748C10.1677 5.11695 10.5079 5.75332 10.6457 6.44611C10.7835 7.1389 10.7127 7.85699 10.4424 8.50959C10.1721 9.16218 9.71436 9.71996 9.12704 10.1124C8.53972 10.5048 7.84922 10.7143 7.14286 10.7143C6.19595 10.7133 5.28809 10.3368 4.61852 9.6672C3.94895 8.99763 3.57238 8.08977 3.57143 7.14286ZM7.14286 46.4286C6.4365 46.4286 5.746 46.2191 5.15868 45.8267C4.57136 45.4342 4.1136 44.8765 3.84329 44.2239C3.57298 43.5713 3.50225 42.8532 3.64005 42.1604C3.77786 41.4676 4.118 40.8312 4.61748 40.3318C5.11695 39.8323 5.75332 39.4921 6.44611 39.3543C7.1389 39.2165 7.85699 39.2873 8.50959 39.5576C9.16218 39.8279 9.71996 40.2856 10.1124 40.873C10.5048 41.4603 10.7143 42.1508 10.7143 42.8571C10.7133 43.8041 10.3368 44.7119 9.6672 45.3815C8.99763 46.051 8.08977 46.4276 7.14286 46.4286ZM21.4286 28.5714C20.7222 28.5714 20.0317 28.362 19.4444 27.9695C18.8571 27.5771 18.3993 27.0193 18.129 26.3667C17.8587 25.7141 17.788 24.996 17.9258 24.3032C18.0636 23.6105 18.4037 22.9741 18.9032 22.4746C19.4027 21.9751 20.039 21.635 20.7318 21.4972C21.4246 21.3594 22.1427 21.4301 22.7953 21.7004C23.4479 21.9707 24.0057 22.4285 24.3981 23.0158C24.7905 23.6031 25 24.2936 25 25C24.9991 25.9469 24.6225 26.8548 23.9529 27.5243C23.2833 28.1939 22.3755 28.5705 21.4286 28.5714ZM42.8571 28.5714C42.1508 28.5714 41.4603 28.362 40.873 27.9695C40.2856 27.5771 39.8279 27.0193 39.5576 26.3667C39.2873 25.7141 39.2165 24.996 39.3543 24.3032C39.4921 23.6105 39.8323 22.9741 40.3318 22.4746C40.8312 21.9751 41.4676 21.635 42.1604 21.4972C42.8532 21.3594 43.5713 21.4301 44.2239 21.7004C44.8765 21.9707 45.4342 22.4285 45.8267 23.0158C46.2191 23.6031 46.4286 24.2936 46.4286 25C46.4276 25.9469 46.051 26.8548 45.3815 27.5243C44.7119 28.1939 43.8041 28.5705 42.8571 28.5714Z" fill="url(#paint3_linear_2910_83)"/>
<defs>
<linearGradient id="paint0_linear_2910_83" x1="33.9286" y1="40.2856" x2="33.9286" y2="47.4285" gradientUnits="userSpaceOnUse">
<stop stop-color="#B88746"/>
<stop offset="1" stop-color="#DFBD69"/>
</linearGradient>
<linearGradient id="paint1_linear_2910_83" x1="33.9286" y1="4.57153" x2="33.9286" y2="11.7144" gradientUnits="userSpaceOnUse">
<stop stop-color="#B88746"/>
<stop offset="1" stop-color="#DFBD69"/>
</linearGradient>
<linearGradient id="paint2_linear_2910_83" x1="3.57143" y1="22.4285" x2="3.57143" y2="29.5713" gradientUnits="userSpaceOnUse">
<stop stop-color="#B88746"/>
<stop offset="1" stop-color="#DFBD69"/>
</linearGradient>
<linearGradient id="paint3_linear_2910_83" x1="24.999" y1="0" x2="24.999" y2="50" gradientUnits="userSpaceOnUse">
<stop stop-color="#B88746"/>
<stop offset="1" stop-color="#DFBD69"/>
</linearGradient>
</defs>
</svg>
