<svg width="80" height="80" viewBox="0 0 80 80" fill="none" xmlns="http://www.w3.org/2000/svg">
<path d="M60.4545 56.3333H65V61H15V56.3333H19.5455V21.3333C19.5455 20.7145 19.7849 20.121 20.2111 19.6834C20.6373 19.2458 21.2154 19 21.8182 19H44.5455C45.1482 19 45.7263 19.2458 46.1525 19.6834C46.5787 20.121 46.8182 20.7145 46.8182 21.3333V56.3333H51.3636V33H58.1818C58.7846 33 59.3627 33.2458 59.7889 33.6834C60.2151 34.121 60.4545 34.7145 60.4545 35.3333V56.3333ZM28.6364 37.6667V42.3333H37.7273V37.6667H28.6364ZM28.6364 28.3333V33H37.7273V28.3333H28.6364Z" fill="#DFBD69"/>
<rect x="1" y="1" width="78" height="78" rx="19" stroke="#B88746" stroke-width="2"/>
</svg>
