<svg width="50" height="50" viewBox="0 0 50 50" fill="none" xmlns="http://www.w3.org/2000/svg">
<path d="M15.237 0C16.3012 1.13179 17.0024 2.49661 17.405 3.97055C18.059 6.36478 18.0172 9.04728 17.7973 11.783C17.3569 17.2547 16.2599 23.0136 17.54 26.5875C18.7416 29.942 20.6682 31.9344 22.8057 32.9139C23.7251 33.3355 24.693 33.5687 25.6722 33.629C28.0124 26.7666 27.5131 18.0087 23.6625 12.0894C28.7607 17.1752 31.1687 24.8548 29.6131 32.904L28.6873 33.2762C28.9764 33.1899 29.2611 33.0899 29.5406 32.9765C33.9462 31.1977 37.5514 25.9907 36.0516 18.3567C35.3624 14.8492 32.9974 9.90408 29.0398 6.07292C25.616 2.75873 21.0447 0.251158 15.237 0ZM45.1784 19.3517C45.0899 20.6275 44.6894 21.8325 44.065 22.9269C42.9734 24.8395 41.2763 26.4862 39.4387 28.0505C35.7635 31.1789 31.5247 34.077 30.127 37.0359C28.8032 39.8388 28.7685 42.229 29.4747 44.1302C29.7764 44.9439 30.2279 45.6938 30.8059 46.3411C36.4689 43.5167 41.5323 37.8099 42.806 31.7872C42.8141 38.0763 39.5764 44.3016 33.6724 48.3314C37.4474 49.865 42.77 48.8621 46.5066 43.2966C48.2377 40.718 49.834 36.2005 49.7554 31.3951C49.6885 27.3158 48.4622 23.0407 45.1784 19.3517ZM0.379739 27.0984C-0.620148 31.9358 0.454391 36.254 2.43582 39.8204C4.76984 44.0211 8.41237 47.1354 11.2005 48.5026C17.218 51.4537 22.3259 49.6591 24.8286 46.4434C17.7019 45.9056 11.7866 42.1337 8.65034 36.6835C12.7646 41.2626 20.0018 43.6731 26.3181 43.2867C26.4957 42.4374 26.5125 41.5623 26.3676 40.7068C26.0287 38.7071 24.7997 36.6529 22.2521 34.8878C19.5629 33.0246 14.4448 32.6356 9.6981 31.7641C7.32486 31.3286 5.0327 30.7529 3.1313 29.6422C2.04284 29.0064 1.09462 28.1596 0.379739 27.0984Z" fill="url(#paint0_linear_1458_24)"/>
<defs>
<linearGradient id="paint0_linear_1458_24" x1="24.8791" y1="0" x2="24.8791" y2="50" gradientUnits="userSpaceOnUse">
<stop stop-color="#B88746"/>
<stop offset="1" stop-color="#DFBD69"/>
</linearGradient>
</defs>
</svg>
