<svg width="80" height="80" viewBox="0 0 80 80" fill="none" xmlns="http://www.w3.org/2000/svg">
<rect x="1" y="1" width="78" height="78" rx="19" stroke="#B88746" stroke-width="2"/>
<path d="M68.1169 63.6831L60.0002 55.6165V24.5831L56.1669 17.5331C55.8841 16.9956 55.4598 16.5456 54.9399 16.2317C54.42 15.9177 53.8242 15.7518 53.2169 15.7518C52.6095 15.7518 52.0137 15.9177 51.4938 16.2317C50.9739 16.5456 50.5496 16.9956 50.2669 17.5331L46.6669 24.5998V42.3498L16.1835 12.0165C15.9504 11.7814 15.6526 11.6211 15.328 11.556C15.0034 11.4909 14.6668 11.5239 14.3611 11.6508C14.0553 11.7778 13.7943 11.9929 13.6113 12.2688C13.4283 12.5446 13.3316 12.8688 13.3335 13.1998V26.6665H16.9502V29.3331H13.3335V39.9998H16.9502V42.6665H13.3335V53.7498H16.9502V56.4165H13.3335V64.8665C13.3335 65.3085 13.5091 65.7324 13.8217 66.045C14.1342 66.3575 14.5582 66.5331 15.0002 66.5331H66.9335C67.2646 66.5351 67.5887 66.4384 67.8645 66.2554C68.1404 66.0724 68.3555 65.8113 68.4825 65.5056C68.6094 65.1999 68.6424 64.8632 68.5773 64.5387C68.5122 64.2141 68.3519 63.9162 68.1169 63.6831V63.6831ZM26.6669 53.3331V38.2331L41.7835 53.3331H26.6669ZM56.6669 56.8498H50.0002V52.7998H56.6669V56.8498ZM56.6669 50.1831H50.0002V25.4165L53.2335 19.1331L56.6669 25.4331V50.1831Z" fill="#DFBD69"/>
</svg>
