<svg width="80" height="80" viewBox="0 0 80 80" fill="none" xmlns="http://www.w3.org/2000/svg">
<rect x="1" y="1" width="78" height="78" rx="19" stroke="#B88746" stroke-width="2"/>
<path d="M57.725 24.293C57.698 24.563 57.682 24.871 57.675 25.205L53.841 27.036C53.304 26.948 50.641 27.103 46.669 25.143C45.662 24.646 44.678 24.382 43.733 24.382C42.8778 24.3832 42.0351 24.5871 41.274 24.977C40.271 24.76 38.826 24.204 37.981 24.206C36.069 24.216 31.722 25.773 30.518 25.906C29.34 26.035 28.127 26.359 26.906 26.875C24.687 26.229 21.905 25.174 20.415 24.591L10 17V41.41L17.654 45.052C17.765 44.922 17.892 44.722 18.03 44.474L18.267 44.584C18.383 44.884 18.511 45.183 18.651 45.48C17.811 46.894 17.711 48.487 18.382 49.872C18.957 51.057 20.028 51.889 21.221 52.122C21.286 52.86 21.534 53.574 21.952 54.193C22.702 55.3 23.894 55.961 25.143 55.961C25.256 55.961 25.369 55.956 25.481 55.943C25.659 56.424 25.92 56.872 26.259 57.26C27.013 58.127 28.069 58.624 29.155 58.624C29.235 58.624 29.313 58.622 29.392 58.616C29.53 59.14 29.765 59.636 30.093 60.078C30.848 61.098 32.013 61.705 33.211 61.705C33.955 61.705 34.666 61.477 35.293 61.05C36.505 61.828 37.559 62.375 38.494 62.711C38.963 62.902 39.451 63 39.949 63C41.127 63 42.27 62.45 43.086 61.488C43.389 61.13 43.635 60.73 43.815 60.302C44.1675 60.4087 44.5337 60.4632 44.902 60.464C46.154 60.464 47.341 59.851 48.162 58.779C48.552 58.271 48.8344 57.6888 48.992 57.068C49.078 57.074 49.163 57.077 49.248 57.077C50.695 57.077 52.08 56.228 52.859 54.861C53.2674 54.1499 53.4841 53.345 53.488 52.525C54.918 52.312 56.177 51.295 56.79 49.812C57.394 48.351 57.23 46.739 56.387 45.395L60.282 43.2C60.382 43.542 60.48 43.857 60.575 44.113L70 39.098V18.642L57.725 24.293ZM57.724 27.33C57.786 28.412 57.899 29.635 58.045 30.912C57.245 29.568 56.235 28.955 54.981 28.65L57.724 27.33ZM52.496 51.086C50.348 50.347 45.877 45.091 45.877 45.091H45.965C46.42 45.059 47.403 44.58 48.506 44.809C46.774 43.321 44.869 44.58 43.572 43.809C43.873 44.774 45.32 45.078 45.691 45.09L49.975 50.072C51.915 52.327 50.564 55.117 48.619 55.561C47.314 54.926 43.629 50.543 43.629 50.543C43.755 50.52 44.502 50.286 45.263 50.386C43.506 49.072 41.514 50.212 40.332 49.387C41.002 51.042 43.209 50.618 43.44 50.578L45.732 53.504C47.566 55.844 46.125 58.547 44.177 58.913C42.45 58.306 41.329 56.146 41.329 56.146C41.503 56.118 42.085 55.859 42.913 55.979C41.44 54.688 39.725 55.859 38.694 55.124C39.331 56.512 40.919 56.196 41.008 56.186C42.596 58.687 40.949 61.295 38.981 61.373H38.979L38.977 61.374C37.795 61.169 36.557 60.224 35.159 59.254C35.639 58.722 36.063 57.787 36.063 57.787C37.467 55.245 35.645 52.997 33.764 53.19C35.29 53.607 36.434 55.555 35.243 57.718L34.72 58.598C34.152 59.633 33.265 60.258 32.613 60.181C31.609 60.059 30.194 58.593 30.789 56.525C31.019 56.315 33.237 52.922 33.237 52.922C34.762 50.466 33.05 48.115 31.164 48.195C32.666 48.702 33.719 50.716 32.424 52.806L30.621 55.617C30.006 56.611 29.21 57.174 28.451 57.07C27.273 56.91 26.447 55.473 26.636 53.99C26.626 53.999 27.934 52.536 27.934 52.536C29.672 50.265 28.184 47.729 26.301 47.596C27.748 48.27 28.61 50.394 27.133 52.327L26.495 53.109C25.795 54.027 24.952 54.494 24.214 54.31C22.926 53.987 22.256 51.577 22.865 50.92C23.344 50.403 24.689 48.766 24.689 48.766C26.426 46.494 24.94 43.959 23.055 43.824C24.503 44.5 25.365 46.624 23.888 48.558L23.25 49.338C22.546 50.264 21.7 50.729 20.957 50.54C19.409 50.148 18.636 47.758 20.117 45.818C20.117 45.818 19.614 44.22 19.387 43.537L18.641 43.191C20.39 39.116 23.032 30.122 23.154 27.134C24.442 27.593 27.842 28.571 28.203 28.573L28.201 28.575C31.861 27.425 35.697 27.552 37.447 26.876C38.014 26.66 39.142 26.646 40.338 27.33C39.591 27.985 38.885 28.765 38.152 29.492C36.4 31.231 29.886 33.943 31.142 36.795C32.226 39.256 35.279 41.774 40.4 37.821L43.28 37.425L47.759 39.635L53.499 45.53C55.546 47.628 54.387 50.476 52.496 51.086ZM53.936 44.591C53.278 43.361 51.227 41.344 49.291 39.695L49.279 39.683C50.172 39.719 51.109 38.281 52.32 38.17C51.474 37.524 50.072 38.27 49.635 38.388C47.226 39.036 43.482 36.005 43.482 36.005L39.9 36.521C39.9 36.521 35.64 41.72 32.051 37.437C30.102 35.111 37.165 32.073 38.905 30.344C41.134 28.129 43.12 25.419 46.787 27.265C49.833 28.801 51.033 28.706 55.119 29.417C56.337 29.63 57.181 30.188 58.086 31.277C58.512 34.861 59.201 38.836 59.862 41.602C59.521 41.889 56.598 43.855 53.936 44.591Z" fill="#DFBD69"/>
</svg>
