<svg width="80" height="80" viewBox="0 0 80 80" fill="none" xmlns="http://www.w3.org/2000/svg">
<rect x="1" y="1" width="78" height="78" rx="19" stroke="#B88746" stroke-width="2"/>
<path d="M18.5714 16.8519C18.5714 16.3607 18.7596 15.8897 19.0945 15.5424C19.4293 15.1951 19.8835 15 20.3571 15H59.6429C60.1165 15 60.5707 15.1951 60.9056 15.5424C61.2404 15.8897 61.4286 16.3607 61.4286 16.8519C61.4286 17.343 61.2404 17.814 60.9056 18.1613C60.5707 18.5086 60.1165 18.7037 59.6429 18.7037H54.2857C54.2857 19.7333 53.5643 20.5556 52.6607 20.5556H51.6071V26.2778C53.125 26.7037 54.25 28.1667 54.25 29.8704C54.25 31.1593 53.6071 32.3 52.6375 32.963L54.2804 35.3704H62.2964C62.5361 35.3684 62.7669 35.4645 62.9388 35.6378C63.1106 35.8111 63.2096 36.0478 63.2143 36.2963C63.2143 36.4185 63.191 36.5395 63.1456 36.6524C63.1003 36.7652 63.0339 36.8676 62.9503 36.9537C62.8666 37.0397 62.7673 37.1078 62.6582 37.1539C62.549 37.2 62.4321 37.2232 62.3143 37.2222H61.4286V42.7778H62.2964C62.5361 42.7758 62.7669 42.8719 62.9388 43.0452C63.1106 43.2186 63.2096 43.4552 63.2143 43.7037C63.2096 43.9523 63.1106 44.1889 62.9388 44.3622C62.7669 44.5355 62.5361 44.6316 62.2964 44.6296H60.4786C60.5033 44.799 60.4816 44.9722 60.4159 45.1294C60.3502 45.2866 60.2432 45.4214 60.1071 45.5185C59.9464 45.6296 59.7679 45.6852 59.5893 45.6852C59.3036 45.6852 59.0357 45.5556 58.8571 45.2963L58.4018 44.6296H42.9554L42.5 45.2963C42.3214 45.5556 42.0536 45.6852 41.7679 45.6852C41.5893 45.6852 41.4107 45.6296 41.25 45.5185C41.1139 45.4214 41.0069 45.2866 40.9412 45.1294C40.8755 44.9722 40.8538 44.799 40.8786 44.6296H39.1321C38.8924 44.6316 38.6616 44.5355 38.4898 44.3622C38.318 44.1889 38.219 43.9523 38.2143 43.7037C38.2143 43.1963 38.6286 42.7778 39.1321 42.7778H40V37.2222H39.1321C38.8924 37.2242 38.6616 37.1281 38.4898 36.9548C38.318 36.7814 38.219 36.5448 38.2143 36.2963C38.2143 35.7889 38.6286 35.3704 39.1321 35.3704H47.0786L48.7214 32.963C48.2265 32.6263 47.82 32.1676 47.5382 31.6278C47.2565 31.088 47.1083 30.4841 47.1071 29.8704C47.1071 29.3519 47.5179 28.9444 48 28.9444C48.5 28.9444 48.8929 29.3519 48.8929 29.8704C48.8929 30.537 49.2375 31.1259 49.7518 31.4519L49.9036 31.2296C49.9426 31.1618 49.99 31.0995 50.0446 31.0444C50.1273 30.9573 50.226 30.8883 50.3349 30.8415C50.4438 30.7947 50.5607 30.7712 50.6786 30.7722C50.9107 30.7704 51.1429 30.8648 51.3125 31.0444C51.3677 31.0994 51.4158 31.1617 51.4554 31.2296L51.6054 31.4519C52.1196 31.1259 52.4643 30.537 52.4643 29.8704C52.4643 28.8519 51.6964 28.037 50.7143 28.0185C50.4107 28.0185 50.125 27.8519 49.9643 27.5926C49.8587 27.4491 49.8021 27.2731 49.8036 27.0926C49.8036 27.0185 49.8036 26.963 49.8214 26.8889V20.5556H48.7679C47.8643 20.5556 47.1429 19.7333 47.1429 18.7037H36.4286V57.5926H37.7679C39 57.5926 40 58.6296 40 59.9074V61.2963H61.4464C63.4107 61.2963 65 62.9537 65 65H15C15 62.9537 16.5893 61.2963 18.5536 61.2963H20.3571V59.9074C20.3571 58.6296 21.3571 57.5926 22.5893 57.5926H23.9286V18.7037H20.3571C19.8835 18.7037 19.4293 18.5086 19.0945 18.1613C18.7596 17.814 18.5714 17.343 18.5714 16.8519ZM25.7143 22.4074V26.4648L33.5393 22.4074H25.7143ZM26.8179 57.5926H34.6429V53.5352L26.8179 57.5926ZM33.5393 52.037H25.7143V56.0944L33.5393 52.037ZM26.8179 27.963H34.6429V23.9056L26.8179 27.963ZM33.5393 29.8148H25.7143V33.8722L33.5393 29.8148ZM26.8179 35.3704H34.6429V31.313L26.8179 35.3704ZM33.5393 37.2222H25.7143V41.2796L33.5393 37.2222ZM26.8179 42.7778H34.6429V38.7204L26.8179 42.7778ZM33.5393 44.6296H25.7143V48.687L33.5393 44.6296ZM26.8179 50.1852H34.6429V46.1278L26.8179 50.1852ZM50.5036 33.5704L49.275 35.3704H52.0821L50.8536 33.5704C50.737 33.5763 50.6202 33.5763 50.5036 33.5704ZM45.8125 37.2222H41.7857V42.7778H42.0214L45.8125 37.2222ZM44.2196 42.7778H57.1375L53.3464 37.2222H48.0107L44.2196 42.7778ZM55.5429 37.2222L59.3357 42.7778H59.6429V37.2222H55.5429Z" fill="#DFBD69"/>
</svg>
