<svg width="30" height="30" viewBox="0 0 30 30" fill="none" xmlns="http://www.w3.org/2000/svg">
<path d="M27.7038 5L19.5 13.1062V5H17.3422L9.5 12.9542V0H0V30H30V5H27.7038ZM28 28H2V2H7.5V15.5H9.79862L17.5 7.68863V15.5H19.9228L28 7.51875V28Z" fill="white"/>
<path d="M7.5 19.5V20H9.5V18H7.5V19.5ZM7.5 22.5H9.5V24.5H7.5V22.5ZM12.5 19.5V20H14.5V18H12.5V19.5ZM12.5 22.5H14.5V24.5H12.5V22.5ZM17.5 19.5V20H19.5V18H17.5V19.5ZM17.5 22.5H19.5V24.5H17.5V22.5ZM22.5 18H24.5V20H22.5V18ZM22.5 22.5H24.5V24.5H22.5V22.5Z" fill="white"/>
</svg>
