<svg width="30" height="30" viewBox="0 0 30 30" fill="none" xmlns="http://www.w3.org/2000/svg">
<path d="M13.9286 2.20714C13.9286 2.66786 14.2221 3.05571 14.6314 3.20357H14.4643C14.1643 3.20357 13.9286 3.45 13.9286 3.73929C13.9286 4.03929 14.175 4.28571 14.4643 4.28571H12.8464C12.5641 4.28854 12.2944 4.40266 12.0957 4.60329C11.8971 4.80392 11.7857 5.07483 11.7857 5.35714H11.3893C11.25 5.35714 11.1165 5.41245 11.0181 5.51091C10.9196 5.60937 10.8643 5.7429 10.8643 5.88214V5.90357C10.8643 6.19286 11.1 6.42857 11.3893 6.42857H11.7857V7.5C9.41786 7.5 7.5 9.41786 7.5 11.7857V13.9286H5.89286C5.75078 13.9286 5.61452 13.985 5.51405 14.0855C5.41358 14.1859 5.35714 14.3222 5.35714 14.4643C5.35714 14.6064 5.41358 14.7426 5.51405 14.8431C5.61452 14.9436 5.75078 15 5.89286 15H6.42857V17.1429H3.75C3.60792 17.1429 3.47166 17.1993 3.37119 17.2998C3.27073 17.4002 3.21429 17.5365 3.21429 17.6786C3.21429 17.8207 3.27073 17.9569 3.37119 18.0574C3.47166 18.1578 3.60792 18.2143 3.75 18.2143H4.28571V20.3571H2.67857C2.53649 20.3571 2.40023 20.4136 2.29976 20.514C2.1993 20.6145 2.14286 20.7508 2.14286 20.8929C2.14286 21.0349 2.1993 21.1712 2.29976 21.2717C2.40023 21.3721 2.53649 21.4286 2.67857 21.4286H3.21429V23.5714H1.60714C1.46506 23.5714 1.3288 23.6279 1.22834 23.7283C1.12787 23.8288 1.07143 23.9651 1.07143 24.1071C1.07143 24.2492 1.12787 24.3855 1.22834 24.486C1.3288 24.5864 1.46506 24.6429 1.60714 24.6429H2.14286V26.7857H0.535714C0.393634 26.7857 0.257373 26.8422 0.156907 26.9426C0.0564413 27.0431 0 27.1793 0 27.3214C0 27.4635 0.0564413 27.5998 0.156907 27.7002C0.257373 27.8007 0.393634 27.8571 0.535714 27.8571H1.07143V30H28.9286V27.8571H29.4643C29.6064 27.8571 29.7426 27.8007 29.8431 27.7002C29.9436 27.5998 30 27.4635 30 27.3214C30 27.1793 29.9436 27.0431 29.8431 26.9426C29.7426 26.8422 29.6064 26.7857 29.4643 26.7857H27.8571V24.6429H28.3929C28.5349 24.6429 28.6712 24.5864 28.7717 24.486C28.8721 24.3855 28.9286 24.2492 28.9286 24.1071C28.9286 23.9651 28.8721 23.8288 28.7717 23.7283C28.6712 23.6279 28.5349 23.5714 28.3929 23.5714H26.7857V21.4286H27.3214C27.4635 21.4286 27.5998 21.3721 27.7002 21.2717C27.8007 21.1712 27.8571 21.0349 27.8571 20.8929C27.8571 20.7508 27.8007 20.6145 27.7002 20.514C27.5998 20.4136 27.4635 20.3571 27.3214 20.3571H25.7143V18.2143H26.25C26.3921 18.2143 26.5283 18.1578 26.6288 18.0574C26.7293 17.9569 26.7857 17.8207 26.7857 17.6786C26.7857 17.5365 26.7293 17.4002 26.6288 17.2998C26.5283 17.1993 26.3921 17.1429 26.25 17.1429H23.5714V15H24.1071C24.2492 15 24.3855 14.9436 24.486 14.8431C24.5864 14.7426 24.6429 14.6064 24.6429 14.4643C24.6429 14.3222 24.5864 14.1859 24.486 14.0855C24.3855 13.985 24.2492 13.9286 24.1071 13.9286H22.5V11.7857C22.5 9.41786 20.5821 7.5 18.2143 7.5V6.42857H18.6964C18.8366 6.42577 18.9702 6.36809 19.0683 6.26793C19.1665 6.16776 19.2215 6.0331 19.2214 5.89286V5.88214C19.2214 5.7429 19.1661 5.60937 19.0677 5.51091C18.9692 5.41245 18.8357 5.35714 18.6964 5.35714H18.2143C18.2157 5.21604 18.189 5.07607 18.1356 4.94544C18.0823 4.8148 18.0034 4.69611 17.9037 4.59634C17.8039 4.49656 17.6852 4.41769 17.5546 4.36435C17.4239 4.31102 17.284 4.28428 17.1429 4.28571H15.5464C15.8357 4.28571 16.0714 4.03929 16.0821 3.73929C16.0821 3.43929 15.8357 3.20357 15.5464 3.20357H15.3729C15.5768 3.13147 15.7534 2.99801 15.8785 2.82153C16.0036 2.64504 16.071 2.43417 16.0714 2.21786V2.175C16.0714 1.59643 15.5893 0 15 0C14.4107 0 13.9286 1.59643 13.9286 2.175V2.20714ZM17.1214 29.9893V25.5964C17.1214 25.0714 16.6929 24.6429 16.1679 24.6429H13.8107C13.2857 24.6429 12.8571 25.0714 12.8571 25.5964V29.9893H10.7143V23.5714H9.19286C8.72143 23.5714 8.42143 23.1 8.625 22.7036L9.13929 21.75C9.24643 21.5571 9.47143 21.4286 9.70714 21.4286H20.2607C20.5071 21.4286 20.7214 21.5464 20.8286 21.75L21.3429 22.7036C21.5571 23.1 21.2464 23.5714 20.775 23.5714H19.2964V29.9893H17.1214ZM19.7143 20.3571H10.2857C9.81429 20.3571 9.51429 19.8857 9.71786 19.4893L10.2321 18.5357C10.3393 18.3321 10.5643 18.2036 10.8 18.2036H19.2C19.4464 18.2036 19.6607 18.3321 19.7679 18.5357L20.2821 19.4893C20.4964 19.8857 20.1857 20.3571 19.7143 20.3571ZM11.3571 17.1429C10.8857 17.1429 10.575 16.6714 10.7893 16.275L11.3036 15.3321C11.4107 15.1393 11.6357 15.0107 11.8714 15.0107H12.8571C12.8611 14.7231 12.9778 14.4485 13.1822 14.2461C13.3866 14.0437 13.6623 13.9297 13.95 13.9286H16.0393C16.6468 13.9286 17.1268 14.415 17.1321 15.0107H18.1393C18.3857 15.0107 18.6 15.1286 18.7071 15.3321L19.2214 16.275C19.4357 16.6714 19.125 17.1429 18.6536 17.1429H11.3571ZM15 13.9286C14.8579 13.9286 14.7217 13.8721 14.6212 13.7717C14.5207 13.6712 14.4643 13.5349 14.4643 13.3929C14.4643 13.2508 14.5207 13.1145 14.6212 13.014C14.7217 12.9136 14.8579 12.8571 15 12.8571C15.1421 12.8571 15.2783 12.9136 15.3788 13.014C15.4793 13.1145 15.5357 13.2508 15.5357 13.3929C15.5357 13.5349 15.4793 13.6712 15.3788 13.7717C15.2783 13.8721 15.1421 13.9286 15 13.9286ZM23.5714 27.8571H27.8571V28.9286H23.5714V27.8571ZM23.5714 24.6429H26.7857V25.7143H23.5714V24.6429ZM23.5714 21.4286H25.7143V22.5H23.5714V21.4286ZM23.5714 19.2857V18.2143H24.6429V19.2857H23.5714ZM2.14286 27.8571H6.42857V28.9286H2.14286V27.8571ZM3.21429 24.6429H6.42857V25.7143H3.21429V24.6429ZM4.28571 22.5V21.4286H6.42857V22.5H4.28571ZM5.35714 18.2143H6.42857V19.2857H5.35714V18.2143Z" fill="white"/>
</svg>
