<svg width="30" height="30" viewBox="0 0 30 30" fill="none" xmlns="http://www.w3.org/2000/svg">
<path d="M28.5 9C28.197 9 21.225 9.0435 15 12.012C8.775 9.0435 1.803 9 1.5 9C1.10218 9 0.720644 9.15804 0.43934 9.43934C0.158035 9.72064 0 10.1022 0 10.5V25.3245C1.95948e-06 25.5258 0.0405084 25.725 0.119107 25.9103C0.197705 26.0955 0.312787 26.2631 0.4575 26.403C0.75 26.685 1.1775 26.8605 1.551 26.823L1.7415 26.8215C2.766 26.8215 8.1855 26.9685 14.3655 29.859C14.3895 29.871 14.4165 29.8665 14.4405 29.8755C14.619 29.949 14.8065 30 15 30C15.1935 30 15.381 29.949 15.561 29.8755C15.585 29.8665 15.612 29.871 15.636 29.859C21.816 26.967 27.2355 26.8215 28.26 26.8215L28.4505 26.823C28.8075 26.8605 29.25 26.685 29.544 26.403C29.835 26.1195 30 25.7295 30 25.3245V10.5C30 10.1022 29.842 9.72064 29.5607 9.43934C29.2794 9.15804 28.8978 9 28.5 9ZM3 12.0735C5.2275 12.24 9.5715 12.7935 13.5 14.6115V26.2245C9 24.462 5.115 23.9835 3 23.8605V12.0735ZM27 23.8605C24.885 23.9835 21 24.462 16.5 26.2245V14.6115C20.4285 12.7935 24.7725 12.24 27 12.0735V23.8605Z" fill="white"/>
<path d="M15 9C17.4853 9 19.5 6.98528 19.5 4.5C19.5 2.01472 17.4853 0 15 0C12.5147 0 10.5 2.01472 10.5 4.5C10.5 6.98528 12.5147 9 15 9Z" fill="white"/>
</svg>
