<svg width="33" height="50" viewBox="0 0 33 50" fill="none" xmlns="http://www.w3.org/2000/svg">
<path d="M16.0749 0V8.93048C16.0749 9.40419 16.263 9.85849 16.598 10.1934C16.933 10.5284 17.3873 10.7166 17.861 10.7166C18.3347 10.7166 18.789 10.5284 19.1239 10.1934C19.4589 9.85849 19.6471 9.40419 19.6471 8.93048V0H23.2193V12.4812C23.2193 12.9549 23.4074 13.4093 23.7424 13.7442C24.0774 14.0792 24.5317 14.2673 25.0054 14.2673C25.4791 14.2673 25.9334 14.0792 26.2683 13.7442C26.6033 13.4093 26.7915 12.9549 26.7915 12.4812V0H32.1497V21.426H0V0H16.0749ZM0 24.9982V26.7843C0 28.6791 0.75271 30.4963 2.09254 31.8362C3.43238 33.176 5.24958 33.9287 7.14439 33.9287H10.7166V44.6417C10.7166 46.0628 11.2811 47.4257 12.286 48.4306C13.2909 49.4355 14.6538 50 16.0749 50C17.496 50 18.8589 49.4355 19.8638 48.4306C20.8686 47.4257 21.4332 46.0628 21.4332 44.6417V33.9251H25.0054C26.9002 33.9251 28.7174 33.1724 30.0572 31.8326C31.397 30.4928 32.1497 28.6755 32.1497 26.7807V24.9982H0Z" fill="url(#paint0_linear_1458_28)"/>
<defs>
<linearGradient id="paint0_linear_1458_28" x1="16.0749" y1="0" x2="16.0749" y2="50" gradientUnits="userSpaceOnUse">
<stop stop-color="#B88746"/>
<stop offset="1" stop-color="#DFBD69"/>
</linearGradient>
</defs>
</svg>
