<svg width="30" height="30" viewBox="0 0 30 30" fill="none" xmlns="http://www.w3.org/2000/svg">
<path d="M1.07073 6.44387e-05C0.482851 0.896707 0.337913 1.99812 0.565055 3.27007C0.835847 4.78688 1.65531 6.49622 2.8397 8.10563C5.20861 11.3245 9.03245 14.107 12.4343 14.5289L12.6721 14.5592L12.8252 14.7425L25.3432 29.8537C26.5909 30.1518 27.3965 29.9662 27.8154 29.5513C28.2375 29.1332 28.4321 28.326 28.1195 27.0449L1.07086 0L1.07073 6.44387e-05ZM25.2527 0.149129L18.2572 7.14458C17.4835 7.91814 17.4768 8.76932 17.8763 9.69936L18.0416 10.0843L17.7393 10.3744L15.3901 12.6148L17.2981 14.5228L19.5285 12.1674L19.8187 11.8612L20.2034 12.0284C21.1812 12.4498 22.1084 12.4325 22.8268 11.7141L29.8222 4.71867L28.9135 3.80997L24.364 8.35746L23.5138 7.50531L28.0612 2.95795L27.0921 1.98858L22.5447 6.53607L21.6924 5.68385L26.2398 1.13649L25.2527 0.149129ZM12.0977 15.7559L0.143846 27.1618C-0.151124 28.3836 0.0378501 29.1468 0.436043 29.5412C0.834364 29.9357 1.60483 30.1168 2.81153 29.8253L13.9797 18.0287L12.0977 15.7559Z" fill="white"/>
</svg>
