<svg width="48" height="50" viewBox="0 0 48 50" fill="none" xmlns="http://www.w3.org/2000/svg">
<path d="M27.4828 5.01335C25.8993 2.06185 21.6693 2.06185 20.0886 5.01335L14.9018 14.6652C14.8197 14.8352 14.704 14.9868 14.5618 15.1109C14.4195 15.235 14.2536 15.329 14.074 15.3873C13.8945 15.4456 13.705 15.4669 13.5169 15.45C13.3289 15.4331 13.1462 15.3783 12.98 15.2889C12.8137 15.1996 12.6672 15.0774 12.5494 14.9299C12.4315 14.7824 12.3447 14.6126 12.2943 14.4307C12.2438 14.2488 12.2307 14.0585 12.2557 13.8714C12.2808 13.6843 12.3434 13.5042 12.4399 13.3419L17.6239 3.68448C20.2621 -1.22816 27.3093 -1.22816 29.9475 3.68448L35.5651 14.1532L36.3904 9.2014C36.4609 8.8446 36.6675 8.52927 36.9665 8.32227C37.2656 8.11526 37.6335 8.03286 37.9922 8.09253C38.351 8.1522 38.6724 8.34926 38.8883 8.64191C39.1042 8.93457 39.1977 9.29982 39.1489 9.66021L37.75 18.0531C37.7167 18.2524 37.6407 18.442 37.5271 18.6091C37.4135 18.7761 37.265 18.9166 37.092 19.0208C36.9189 19.125 36.7253 19.1905 36.5245 19.2128C36.3237 19.235 36.1205 19.2135 35.9288 19.1498L27.5359 16.3521C27.1973 16.2248 26.9211 15.9712 26.7655 15.6446C26.6099 15.318 26.5868 14.9437 26.7013 14.6005C26.8157 14.2573 27.0586 13.9717 27.3791 13.8038C27.6996 13.6359 28.0726 13.5987 28.42 13.7L32.9577 15.2107L27.4828 5.00776V5.01335ZM38.7376 22.9378C38.5701 23.0214 38.4211 23.1378 38.2995 23.2801C38.1778 23.4224 38.086 23.5877 38.0294 23.7662C37.9727 23.9446 37.9525 24.1326 37.9699 24.319C37.9873 24.5054 38.0419 24.6864 38.1305 24.8513L43.8097 35.4264C44.1533 36.0658 44.3252 36.7835 44.3085 37.5092C44.2918 38.235 44.0871 38.944 43.7144 39.5669C43.3418 40.1899 42.8139 40.7056 42.1823 41.0635C41.5508 41.4215 40.8372 41.6095 40.1112 41.6091H28.557L31.7659 38.4003C32.0286 38.138 32.1763 37.7821 32.1766 37.4109C32.1768 37.0397 32.0296 36.6836 31.7673 36.4209C31.505 36.1583 31.1491 36.0106 30.7779 36.0103C30.4068 36.01 30.0507 36.1572 29.788 36.4195L24.1927 42.0148C24.0625 42.1447 23.9591 42.2991 23.8886 42.469C23.8181 42.639 23.7818 42.8212 23.7818 43.0052C23.7818 43.1891 23.8181 43.3713 23.8886 43.5413C23.9591 43.7112 24.0625 43.8656 24.1927 43.9955L29.788 49.5908C30.0507 49.8531 30.4068 50.0003 30.7779 50C31.1491 49.9997 31.505 49.852 31.7673 49.5894C32.0296 49.3267 32.1768 48.9706 32.1766 48.5994C32.1763 48.2282 32.0286 47.8723 31.7659 47.61L28.5598 44.4068H40.114C45.4016 44.4068 48.7755 38.7639 46.2744 34.1031L40.5952 23.5281C40.4232 23.2074 40.133 22.9663 39.7862 22.8561C39.4393 22.7459 39.0632 22.7752 38.7376 22.9378V22.9378ZM7.45453 41.6063H16.7874C17.1584 41.6063 17.5142 41.7537 17.7765 42.016C18.0389 42.2784 18.1862 42.6342 18.1862 43.0052C18.1862 43.3761 18.0389 43.7319 17.7765 43.9943C17.5142 44.2566 17.1584 44.404 16.7874 44.404H7.45453C2.16701 44.404 -1.20973 38.7611 1.29135 34.1003L7.28947 22.9294L1.84249 24.7478C1.66798 24.8059 1.48374 24.829 1.3003 24.8158C1.11686 24.8027 0.937808 24.7535 0.773365 24.6712C0.608922 24.5888 0.462309 24.4749 0.341898 24.3359C0.221487 24.1969 0.129635 24.0355 0.0715877 23.861C0.0135401 23.6865 -0.00956682 23.5022 0.00358635 23.3188C0.0167395 23.1354 0.0658953 22.9563 0.148247 22.7919C0.230598 22.6274 0.344533 22.4808 0.483545 22.3604C0.622558 22.24 0.783926 22.1481 0.958436 22.0901L9.35132 19.2924C9.70303 19.1755 10.0868 19.2029 10.4183 19.3687C10.7498 19.5344 11.002 19.825 11.1194 20.1765L13.9171 28.5694C14.0227 28.9178 13.9882 29.2937 13.8211 29.6172C13.654 29.9407 13.3673 30.1863 13.022 30.3017C12.6767 30.4172 12.2999 30.3935 11.9718 30.2356C11.6437 30.0777 11.3901 29.7981 11.2649 29.4562L9.6143 24.51L3.75606 35.4236C3.41246 36.063 3.24061 36.7807 3.25731 37.5064C3.27401 38.2322 3.47869 38.9412 3.85135 39.5642C4.22401 40.1871 4.7519 40.7028 5.38345 41.0607C6.015 41.4187 6.7286 41.6067 7.45453 41.6063V41.6063Z" fill="url(#paint0_linear_1458_11)"/>
<defs>
<linearGradient id="paint0_linear_1458_11" x1="23.558" y1="0" x2="23.558" y2="50" gradientUnits="userSpaceOnUse">
<stop stop-color="#B88746"/>
<stop offset="1" stop-color="#DFBD69"/>
</linearGradient>
</defs>
</svg>
