<svg width="50" height="50" viewBox="0 0 50 50" fill="none" xmlns="http://www.w3.org/2000/svg">
<path d="M9.16699 6.66663C8.50395 6.66663 7.86807 6.93002 7.39922 7.39886C6.93038 7.8677 6.66699 8.50358 6.66699 9.16663V22.5C6.66699 22.721 6.75479 22.9329 6.91107 23.0892C7.06735 23.2455 7.27931 23.3333 7.50033 23.3333H22.5003C22.7213 23.3333 22.9333 23.2455 23.0896 23.0892C23.2459 22.9329 23.3337 22.721 23.3337 22.5V7.49996C23.3337 7.27895 23.2459 7.06698 23.0896 6.9107C22.9333 6.75442 22.7213 6.66663 22.5003 6.66663H9.16699ZM27.5003 6.66663C27.2793 6.66663 27.0674 6.75442 26.9111 6.9107C26.7548 7.06698 26.667 7.27895 26.667 7.49996V22.5C26.667 22.721 26.7548 22.9329 26.9111 23.0892C27.0674 23.2455 27.2793 23.3333 27.5003 23.3333H42.5003C42.7213 23.3333 42.9333 23.2455 43.0896 23.0892C43.2459 22.9329 43.3337 22.721 43.3337 22.5V9.16663C43.3337 8.50358 43.0703 7.8677 42.6014 7.39886C42.1326 6.93002 41.4967 6.66663 40.8337 6.66663H27.5003ZM41.4237 8.57663C41.501 8.65416 41.5623 8.74617 41.604 8.84741C41.6458 8.94864 41.6672 9.05712 41.667 9.16663V21.6666H28.3337L41.4237 8.57663ZM26.667 27.5C26.667 27.2789 26.7548 27.067 26.9111 26.9107C27.0674 26.7544 27.2793 26.6666 27.5003 26.6666H42.5003C42.7213 26.6666 42.9333 26.7544 43.0896 26.9107C43.2459 27.067 43.3337 27.2789 43.3337 27.5V40.8333C43.3337 41.4963 43.0703 42.1322 42.6014 42.6011C42.1326 43.0699 41.4967 43.3333 40.8337 43.3333H27.5003C27.2793 43.3333 27.0674 43.2455 26.9111 43.0892C26.7548 42.9329 26.667 42.721 26.667 42.5V27.5ZM28.3337 41.6666H40.8337C41.0547 41.6666 41.2666 41.5788 41.4229 41.4226C41.5792 41.2663 41.667 41.0543 41.667 40.8333V28.3333H28.3337V41.6666ZM7.50033 26.6666C7.27931 26.6666 7.06735 26.7544 6.91107 26.9107C6.75479 27.067 6.66699 27.2789 6.66699 27.5V40.8333C6.66699 41.4963 6.93038 42.1322 7.39922 42.6011C7.86807 43.0699 8.50395 43.3333 9.16699 43.3333H22.5003C22.7213 43.3333 22.9333 43.2455 23.0896 43.0892C23.2459 42.9329 23.3337 42.721 23.3337 42.5V27.5C23.3337 27.2789 23.2459 27.067 23.0896 26.9107C22.9333 26.7544 22.7213 26.6666 22.5003 26.6666H7.50033ZM21.667 28.3333V41.6666H9.16699C9.05747 41.6669 8.94897 41.6456 8.84772 41.6038C8.74647 41.5621 8.65447 41.5007 8.57699 41.4233L21.667 28.3333Z" fill="url(#paint0_linear_1458_15)"/>
<path d="M8.33333 0C7.23898 0 6.15535 0.215548 5.1443 0.634337C4.13326 1.05313 3.2146 1.66696 2.44078 2.44078C0.877974 4.00358 0 6.1232 0 8.33333V41.6667C0 43.8768 0.877974 45.9964 2.44078 47.5592C3.2146 48.333 4.13326 48.9469 5.1443 49.3657C6.15535 49.7845 7.23898 50 8.33333 50H41.6667C43.8768 50 45.9964 49.122 47.5592 47.5592C49.122 45.9964 50 43.8768 50 41.6667V8.33333C50 7.23898 49.7845 6.15535 49.3657 5.1443C48.9469 4.13326 48.333 3.2146 47.5592 2.44078C46.7854 1.66696 45.8667 1.05313 44.8557 0.634337C43.8446 0.215548 42.761 0 41.6667 0H8.33333ZM3.33333 8.33333C3.33333 7.00725 3.86012 5.73548 4.7978 4.7978C5.73548 3.86012 7.00725 3.33333 8.33333 3.33333H41.6667C42.9927 3.33333 44.2645 3.86012 45.2022 4.7978C46.1399 5.73548 46.6667 7.00725 46.6667 8.33333V41.6667C46.6667 42.9927 46.1399 44.2645 45.2022 45.2022C44.2645 46.1399 42.9927 46.6667 41.6667 46.6667H8.33333C7.00725 46.6667 5.73548 46.1399 4.7978 45.2022C3.86012 44.2645 3.33333 42.9927 3.33333 41.6667V8.33333Z" fill="url(#paint1_linear_1458_15)"/>
<defs>
<linearGradient id="paint0_linear_1458_15" x1="25.0003" y1="6.66663" x2="25.0003" y2="43.3333" gradientUnits="userSpaceOnUse">
<stop stop-color="#B88746"/>
<stop offset="1" stop-color="#DFBD69"/>
</linearGradient>
<linearGradient id="paint1_linear_1458_15" x1="25" y1="0" x2="25" y2="50" gradientUnits="userSpaceOnUse">
<stop stop-color="#B88746"/>
<stop offset="1" stop-color="#DFBD69"/>
</linearGradient>
</defs>
</svg>
